<svg xmlns="http://www.w3.org/2000/svg" width="700" height="240" xml:space="preserve"><defs><clipPath id="a" clipPathUnits="userSpaceOnUse"><path d="M0 82.008h157.008V0H0Z"/></clipPath></defs><g clip-path="url(#a)" transform="matrix(5.86393 0 0 -5.86393 -105.4 373.731)"><path fill="#fff" fill-rule="evenodd" d="M62.33 38.307c-1.148-.004-2.044-.45-2.703-1.318-.19-.251-.46-.94-.46-.94v-2.867s.133-.357.211-.507c.982-1.872 3.823-2.22 5.247-.655 1.102 1.212 1.292 3.253.433 4.698-.624 1.048-1.55 1.575-2.728 1.589m-3.037-7.441s.007-4.128.007-6.184h-1.746v14.875h1.555c0-.377.006-.914.006-1.377.076.092.204.232.24.275 1.951 2.303 5.44 1.73 7.05-.584 1.755-2.523 1.092-6.196-1.408-7.744-1.802-1.115-3.862-.918-5.432.518a4.792 4.792 0 0 1-.272.22M100.913 38.307c-1.147-.004-2.045-.45-2.704-1.318-.187-.251-.462-.94-.462-.94l.004-2.867s.132-.357.21-.507c.981-1.872 3.824-2.22 5.25-.655 1.1 1.212 1.288 3.253.431 4.698-.625 1.048-1.55 1.575-2.729 1.589m-3.038-7.441s.008-4.128.008-6.184H96.14v14.875h1.55c0-.377.01-.914.01-1.377.071.092.203.232.238.275 1.951 2.303 5.44 1.73 7.05-.584 1.755-2.523 1.092-6.196-1.409-7.744-1.8-1.115-3.86-.918-5.43.518-.058.057-.274.22-.274.22M91.548 32.45l.002 1.416c-.128.101-.074.062-.278.17-1.203.653-2.49.804-3.797.325a1.658 1.658 0 0 1-1.118-1.676c.031-.674.478-1.237 1.226-1.476 1.251-.406 2.37-.147 3.362.717.397.342.603.524.603.524m-.254-1.76c-1.449-1.493-3.796-1.687-5.428-.465-1.927 1.45-1.707 4.337.433 5.458 1.514.791 3.058.692 4.594.043l.588-.252c.276 1.998-1.137 3.207-3.238 2.767-.749-.155-1.473-.452-2.284-.705-.22.441-.454.901-.705 1.4 1.978.962 3.967 1.44 6.047.473 1.33-.618 2.004-1.714 2.008-3.194.004-2.002.004-4.008.002-6.008 0-.176-.017-.353-.028-.553h-1.728v1.297zM83.143 38.18c-.41-.37-.794-.714-1.176-1.057-1.947 1.84-4.21 1.267-5.198.139-1.289-1.477-1.219-3.97.15-5.338 1.08-1.082 3.398-1.47 5.203.475l.993-1.235c-.803-1.272-3.189-2.078-5.132-1.611-2.1.504-3.713 2.332-3.893 4.418-.217 2.525.926 4.602 3.04 5.523 2.016.876 4.517.35 6.013-1.314M71.595 29.646h-1.69v9.918h1.69zM71.962 42.775c-.005-.66-.542-1.215-1.18-1.227-.65-.008-1.237.58-1.243 1.237-.006.66.573 1.252 1.224 1.254.657 0 1.206-.575 1.199-1.264M130.133 32.45l.002 1.416c-.13.101-.076.062-.278.17-1.206.653-2.493.804-3.8.325a1.658 1.658 0 0 1-1.117-1.676c.03-.674.476-1.237 1.226-1.476 1.25-.406 2.369-.147 3.362.717l.605.524m-.256-1.76c-1.447-1.493-3.794-1.687-5.426-.465-1.93 1.45-1.708 4.337.43 5.458 1.517.791 3.059.692 4.595.043.193-.083.386-.166.59-.252.273 1.998-1.141 3.207-3.24 2.767-.751-.155-1.471-.452-2.283-.705-.223.441-.455.901-.705 1.4 1.976.962 3.966 1.44 6.048.473 1.329-.618 2.002-1.714 2.006-3.194.006-2.002.004-4.008.002-6.008-.002-.176-.02-.353-.028-.553h-1.728v1.297zM121.728 38.18c-.412-.37-.796-.714-1.176-1.057-1.95 1.84-4.21 1.267-5.2.139-1.29-1.477-1.22-3.97.149-5.338 1.08-1.082 3.398-1.47 5.202.475.325-.401.65-.802.997-1.235-.804-1.272-3.192-2.078-5.135-1.611-2.101.504-3.712 2.332-3.892 4.418-.218 2.525.927 4.602 3.04 5.523 2.015.876 4.519.35 6.015-1.314M110.179 29.646h-1.694v9.918h1.694zM110.544 42.775c-.005-.66-.538-1.215-1.18-1.227-.649-.008-1.236.58-1.243 1.237-.004.66.573 1.252 1.225 1.254.66 0 1.206-.575 1.198-1.264"/><path fill="#fff" d="m64.028 51.5-4.102 4.104a.462.462 0 0 1-.657 0L55.167 51.5a.446.446 0 0 1-.136-.328h-.003c0-.258.207-.465.465-.465l8.207-.01c.228 0 .417.166.454.383a.45.45 0 0 1-.126.42M46.258 30.595l-4.103 4.103a.462.462 0 0 1-.656 0l-4.103-4.103a.466.466 0 0 1-.135-.33h-.004c0-.257.208-.464.466-.464l8.204-.01c.23 0 .418.166.457.385a.462.462 0 0 1-.126.419M54.452 50.372l-5.232 5.202a.464.464 0 0 1-.656 0l-5.198-5.202a.455.455 0 0 1-.136-.33h-.004c0-.257.208-.464.464-.464l10.431-.008c.23 0 .418.164.457.383a.462.462 0 0 1-.126.42M53.933 48.838l-11.092-.021a.464.464 0 0 1-.464-.464l.002-11.066c0-.13.054-.246.139-.33l-.002-.002a.463.463 0 0 1 .655 0l11.096 11.083a.46.46 0 0 1 .05.592.464.464 0 0 1-.384.208M29.975 35.723l11.09.02c.258 0 .464.209.464.464l-.002 11.069a.462.462 0 0 1-.137.328l.002.002a.465.465 0 0 1-.657 0L29.64 36.526a.465.465 0 0 1-.052-.594.457.457 0 0 1 .386-.21M49.845 56.768a.467.467 0 0 1 0-.657l4.104-4.104c.18-.18.474-.18.655 0l4.103 4.104a.465.465 0 0 1 0 .657l-4.103 4.102a.463.463 0 0 1-.655 0zM34.426 34.08c.282.281.024.791-.302.791h-5.335a.795.795 0 0 1-.48-.197l-5.433-5.438c-.262-.26-.102-.794.343-.794h5.29c.154 0 .367.09.477.2z"/></g></svg>
