<?xml version="1.0" encoding="UTF-8" standalone="no"?>
<svg
   xmlns:dc="http://purl.org/dc/elements/1.1/"
   xmlns:cc="http://creativecommons.org/ns#"
   xmlns:rdf="http://www.w3.org/1999/02/22-rdf-syntax-ns#"
   xmlns:svg="http://www.w3.org/2000/svg"
   xmlns="http://www.w3.org/2000/svg"
   xmlns:sodipodi="http://sodipodi.sourceforge.net/DTD/sodipodi-0.dtd"
   xmlns:inkscape="http://www.inkscape.org/namespaces/inkscape"
   version="1.1"
   id="svg2"
   xml:space="preserve"
   width="700"
   height="240"
   viewBox="0 0 699.99999 240.00001"
   sodipodi:docname="picapica3-logo2-rgb-dark.svg"
   inkscape:version="1.0.1 (3bc2e813f5, 2020-09-07)"><metadata
     id="metadata8"><rdf:RDF><cc:Work
         rdf:about=""><dc:format>image/svg+xml</dc:format><dc:type
           rdf:resource="http://purl.org/dc/dcmitype/StillImage" /><dc:title></dc:title></cc:Work></rdf:RDF></metadata><defs
     id="defs6"><clipPath
       clipPathUnits="userSpaceOnUse"
       id="clipPath18"><path
         d="M 0,82.008 H 157.008 V 0 H 0 Z"
         id="path16" /></clipPath></defs><sodipodi:namedview
     pagecolor="#ffffff"
     bordercolor="#666666"
     borderopacity="1"
     objecttolerance="10"
     gridtolerance="10"
     guidetolerance="10"
     inkscape:pageopacity="0"
     inkscape:pageshadow="2"
     inkscape:window-width="1624"
     inkscape:window-height="831"
     id="namedview4"
     inkscape:document-rotation="0"
     showgrid="false"
     inkscape:pagecheckerboard="false"
     inkscape:zoom="0.92127494"
     inkscape:cx="247.16927"
     inkscape:cy="96.581201"
     inkscape:window-x="1323"
     inkscape:window-y="564"
     inkscape:window-maximized="0"
     inkscape:current-layer="g10" /><g
     id="g10"
     inkscape:groupmode="layer"
     inkscape:label="picapica3-logo2-rgb-dark"
     transform="matrix(1.3333333,0,0,-1.3333333,0,109.34373)"><g
       id="g12"
       transform="matrix(4.3979491,0,0,4.3979491,-79.050522,-198.29063)"><g
         id="g14"
         clip-path="url(#clipPath18)"><g
           id="g20"
           transform="translate(62.3301,38.3066)"><path
             d="m 0,0 c -1.148,-0.004 -2.044,-0.449 -2.703,-1.318 -0.19,-0.251 -0.461,-0.939 -0.461,-0.939 v -2.868 c 0,0 0.134,-0.357 0.212,-0.507 0.982,-1.872 3.823,-2.22 5.247,-0.655 1.102,1.212 1.292,3.253 0.433,4.698 C 2.104,-0.541 1.177,-0.014 0,0 m -3.037,-7.441 c 0,0 0.007,-4.128 0.007,-6.184 H -4.776 V 1.25 h 1.555 c 0,-0.377 0.006,-0.914 0.006,-1.377 0.076,0.092 0.204,0.232 0.239,0.275 1.952,2.303 5.44,1.731 7.051,-0.584 1.755,-2.523 1.092,-6.196 -1.408,-7.744 -1.802,-1.115 -3.862,-0.918 -5.432,0.518 -0.057,0.057 -0.272,0.221 -0.272,0.221"
             style="fill:#242e33;fill-opacity:1;fill-rule:evenodd;stroke:none"
             id="path22" /></g><g
           id="g24"
           transform="translate(100.9131,38.3066)"><path
             d="m 0,0 c -1.147,-0.004 -2.045,-0.449 -2.704,-1.318 -0.187,-0.251 -0.462,-0.939 -0.462,-0.939 l 0.004,-2.868 c 0,0 0.132,-0.357 0.21,-0.507 0.981,-1.872 3.824,-2.22 5.249,-0.655 1.1,1.212 1.289,3.253 0.432,4.698 C 2.104,-0.541 1.178,-0.014 0,0 m -3.038,-7.441 c 0,0 0.008,-4.128 0.008,-6.184 H -4.773 V 1.25 h 1.55 c 0,-0.377 0.009,-0.914 0.009,-1.377 0.072,0.092 0.204,0.232 0.239,0.275 1.951,2.303 5.439,1.731 7.049,-0.584 1.756,-2.523 1.093,-6.196 -1.408,-7.744 -1.8,-1.115 -3.861,-0.918 -5.431,0.518 -0.057,0.057 -0.273,0.221 -0.273,0.221"
             style="fill:#242e33;fill-opacity:1;fill-rule:evenodd;stroke:none"
             id="path26" /></g><g
           id="g28"
           transform="translate(91.5483,32.4502)"><path
             d="M 0,0 C 0,0 0.002,1.241 0.002,1.416 -0.126,1.517 -0.072,1.478 -0.276,1.585 -1.479,2.239 -2.767,2.39 -4.073,1.911 -4.819,1.639 -5.227,0.974 -5.191,0.235 c 0.031,-0.674 0.478,-1.237 1.226,-1.476 1.251,-0.406 2.369,-0.147 3.362,0.717 C -0.206,-0.182 0,0 0,0 m -0.254,-1.761 c -1.449,-1.492 -3.796,-1.686 -5.428,-0.464 -1.927,1.45 -1.707,4.337 0.433,5.458 1.514,0.791 3.058,0.692 4.594,0.043 C -0.462,3.193 -0.269,3.11 -0.067,3.024 0.209,5.022 -1.204,6.231 -3.305,5.791 -4.054,5.636 -4.778,5.339 -5.589,5.086 -5.81,5.527 -6.043,5.987 -6.294,6.485 c 1.978,0.963 3.967,1.44 6.047,0.474 1.33,-0.618 2.004,-1.714 2.008,-3.194 0.004,-2.002 0.004,-4.008 0.002,-6.008 0,-0.176 -0.017,-0.353 -0.028,-0.553 H 0.007 v 1.297 z"
             style="fill:#242e33;fill-opacity:1;fill-rule:evenodd;stroke:none"
             id="path30" /></g><g
           id="g32"
           transform="translate(83.1431,38.1797)"><path
             d="m 0,0 c -0.41,-0.37 -0.794,-0.714 -1.176,-1.057 -1.947,1.841 -4.21,1.267 -5.198,0.139 -1.289,-1.477 -1.219,-3.969 0.149,-5.338 1.08,-1.082 3.399,-1.469 5.204,0.475 0.323,-0.401 0.646,-0.802 0.993,-1.235 -0.803,-1.272 -3.189,-2.078 -5.132,-1.611 -2.1,0.504 -3.713,2.332 -3.893,4.418 -0.217,2.525 0.926,4.602 3.039,5.523 C -3.997,2.19 -1.496,1.664 0,0"
             style="fill:#242e33;fill-opacity:1;fill-rule:evenodd;stroke:none"
             id="path34" /></g><path
           d="m 71.595,29.646 h -1.69 v 9.918 h 1.69 z"
           style="fill:#242e33;fill-opacity:1;fill-rule:evenodd;stroke:none"
           id="path36" /><g
           id="g38"
           transform="translate(71.9619,42.7754)"><path
             d="M 0,0 C -0.005,-0.661 -0.542,-1.215 -1.18,-1.227 -1.83,-1.235 -2.417,-0.648 -2.423,0.01 -2.429,0.67 -1.85,1.262 -1.199,1.264 -0.542,1.264 0.007,0.689 0,0"
             style="fill:#242e33;fill-opacity:1;fill-rule:evenodd;stroke:none"
             id="path40" /></g><g
           id="g42"
           transform="translate(130.1328,32.4502)"><path
             d="M 0,0 C 0,0 0.002,1.241 0.002,1.416 -0.128,1.517 -0.074,1.478 -0.276,1.585 -1.482,2.239 -2.769,2.39 -4.075,1.911 -4.82,1.639 -5.23,0.974 -5.193,0.235 c 0.031,-0.674 0.476,-1.237 1.226,-1.476 1.251,-0.406 2.369,-0.147 3.362,0.717 C -0.211,-0.182 0,0 0,0 m -0.256,-1.761 c -1.447,-1.492 -3.794,-1.686 -5.426,-0.464 -1.929,1.45 -1.708,4.337 0.431,5.458 1.516,0.791 3.058,0.692 4.594,0.043 0.193,-0.083 0.386,-0.166 0.59,-0.252 0.273,1.998 -1.141,3.207 -3.24,2.767 C -4.058,5.636 -4.778,5.339 -5.59,5.086 -5.813,5.527 -6.045,5.987 -6.295,6.485 -4.319,7.448 -2.329,7.925 -0.247,6.959 1.082,6.341 1.755,5.245 1.759,3.765 1.765,1.763 1.763,-0.243 1.761,-2.243 1.759,-2.419 1.742,-2.596 1.733,-2.796 H 0.005 v 1.297 z"
             style="fill:#242e33;fill-opacity:1;fill-rule:evenodd;stroke:none"
             id="path44" /></g><g
           id="g46"
           transform="translate(121.7275,38.1797)"><path
             d="m 0,0 c -0.412,-0.37 -0.796,-0.714 -1.176,-1.057 -1.949,1.841 -4.21,1.267 -5.199,0.139 -1.29,-1.477 -1.221,-3.969 0.148,-5.338 1.08,-1.082 3.399,-1.469 5.203,0.475 0.324,-0.401 0.649,-0.802 0.996,-1.235 -0.803,-1.272 -3.191,-2.078 -5.134,-1.611 -2.102,0.504 -3.713,2.332 -3.893,4.418 -0.217,2.525 0.928,4.602 3.041,5.523 C -4,2.19 -1.496,1.664 0,0"
             style="fill:#242e33;fill-opacity:1;fill-rule:evenodd;stroke:none"
             id="path48" /></g><path
           d="m 110.179,29.646 h -1.694 v 9.918 h 1.694 z"
           style="fill:#242e33;fill-opacity:1;fill-rule:evenodd;stroke:none"
           id="path50" /><g
           id="g52"
           transform="translate(110.5444,42.7754)"><path
             d="M 0,0 C -0.005,-0.661 -0.538,-1.215 -1.18,-1.227 -1.829,-1.235 -2.416,-0.648 -2.423,0.01 -2.427,0.67 -1.85,1.262 -1.198,1.264 -0.538,1.264 0.008,0.689 0,0"
             style="fill:#242e33;fill-opacity:1;fill-rule:evenodd;stroke:none"
             id="path54" /></g><g
           id="g56"
           transform="translate(64.0278,51.5)"><path
             d="m 0,0 -4.102,4.104 c -0.182,0.183 -0.475,0.183 -0.657,0 L -8.861,0 C -8.953,-0.089 -8.999,-0.209 -8.997,-0.328 H -9 c 0,-0.258 0.207,-0.465 0.465,-0.465 l 8.207,-0.01 c 0.228,0 0.417,0.166 0.454,0.383 C 0.158,-0.271 0.115,-0.111 0,0"
             style="fill:#242e33;fill-opacity:1;fill-rule:nonzero;stroke:none"
             id="path58" /></g><g
           id="g60"
           transform="translate(46.2583,30.5947)"><path
             d="m 0,0 -4.103,4.103 c -0.181,0.182 -0.475,0.182 -0.656,0 L -8.862,0 c -0.091,-0.091 -0.135,-0.212 -0.135,-0.33 h -0.004 c 0,-0.257 0.208,-0.464 0.466,-0.464 l 8.204,-0.01 c 0.229,0 0.418,0.166 0.457,0.385 C 0.156,-0.272 0.113,-0.113 0,0"
             style="fill:#242e33;fill-opacity:1;fill-rule:nonzero;stroke:none"
             id="path62" /></g><g
           id="g64"
           transform="translate(54.4521,50.3721)"><path
             d="m 0,0 -5.232,5.202 c -0.181,0.181 -0.476,0.181 -0.656,0 L -11.086,0 c -0.092,-0.091 -0.138,-0.212 -0.136,-0.33 h -0.004 c 0,-0.257 0.208,-0.464 0.464,-0.464 l 10.431,-0.008 c 0.229,0 0.418,0.164 0.457,0.383 C 0.156,-0.272 0.113,-0.112 0,0"
             style="fill:#242e33;fill-opacity:1;fill-rule:nonzero;stroke:none"
             id="path66" /></g><g
           id="g68"
           transform="translate(53.9326,48.8379)"><path
             d="m 0,0 -11.092,-0.021 c -0.256,0 -0.464,-0.207 -0.464,-0.464 l 0.002,-11.066 c 0,-0.129 0.054,-0.246 0.139,-0.33 l -0.002,-0.002 c 0.18,-0.181 0.475,-0.181 0.655,0 L 0.334,-0.8 c 0.161,0.161 0.178,0.411 0.05,0.592 C 0.302,-0.084 0.159,0 0,0"
             style="fill:#242e33;fill-opacity:1;fill-rule:nonzero;stroke:none"
             id="path70" /></g><g
           id="g72"
           transform="translate(29.9746,35.7227)"><path
             d="m 0,0 11.09,0.021 c 0.258,0 0.464,0.208 0.464,0.463 l -0.002,11.069 c 0,0.128 -0.053,0.245 -0.137,0.328 l 0.002,0.002 c -0.182,0.181 -0.475,0.181 -0.657,0 L -0.334,0.803 C -0.496,0.639 -0.512,0.389 -0.386,0.209 -0.304,0.082 -0.162,0 0,0"
             style="fill:#242e33;fill-opacity:1;fill-rule:nonzero;stroke:none"
             id="path74" /></g><g
           id="g76"
           transform="translate(49.8447,56.7676)"><path
             d="m 0,0 c -0.18,-0.182 -0.18,-0.477 0,-0.657 l 4.104,-4.104 c 0.18,-0.18 0.474,-0.18 0.655,0 l 4.103,4.104 c 0.181,0.18 0.181,0.475 0,0.657 L 4.759,4.102 c -0.181,0.181 -0.475,0.181 -0.655,0 z"
             style="fill:#242e33;fill-opacity:1;fill-rule:nonzero;stroke:none"
             id="path78" /></g><g
           id="g80"
           transform="translate(34.4258,34.0801)"><path
             d="m 0,0 c 0.282,0.281 0.024,0.791 -0.302,0.791 h -5.335 c -0.154,0 -0.369,-0.09 -0.479,-0.197 l -5.434,-5.438 c -0.262,-0.26 -0.102,-0.794 0.343,-0.794 h 5.29 c 0.154,0 0.367,0.089 0.477,0.199 z"
             style="fill:#242e33;fill-opacity:1;fill-rule:nonzero;stroke:none"
             id="path82" /></g></g></g></g></svg>
